<svg width="40" height="40" viewBox="0 0 40 40" fill="none" xmlns="http://www.w3.org/2000/svg">
<path d="M18.546 10.438C18.7295 10.6417 18.9538 10.8046 19.2043 10.9161C19.4548 11.0275 19.7259 11.0851 20 11.0851C20.2742 11.0851 20.5453 11.0275 20.7958 10.9161C21.0463 10.8046 21.2705 10.6417 21.454 10.438L22.4 9.4C22.6712 9.09995 23.0285 8.89115 23.423 8.80226C23.8175 8.71338 24.2299 8.74878 24.6035 8.90358C24.9771 9.05839 25.2936 9.32503 25.5097 9.6669C25.7257 10.0088 25.8306 10.4091 25.81 10.813L25.739 12.213C25.7253 12.4861 25.7689 12.7591 25.8671 13.0143C25.9653 13.2695 26.1158 13.5013 26.309 13.6948C26.5023 13.8883 26.7339 14.0392 26.9889 14.1378C27.244 14.2363 27.5169 14.2803 27.79 14.267L29.19 14.196C29.5937 14.1761 29.9936 14.2815 30.3349 14.4978C30.6763 14.7141 30.9424 15.0306 31.0968 15.4041C31.2513 15.7775 31.2864 16.1896 31.1975 16.5838C31.1085 16.978 30.8999 17.335 30.6 17.606L29.558 18.546C29.3546 18.7298 29.192 18.9542 29.0806 19.2047C28.9693 19.4552 28.9118 19.7264 28.9118 20.0005C28.9118 20.2747 28.9693 20.5458 29.0806 20.7963C29.192 21.0468 29.3546 21.2712 29.558 21.455L30.6 22.395C30.9001 22.6661 31.1089 23.0235 31.1978 23.418C31.2867 23.8125 31.2513 24.2249 31.0965 24.5985C30.9417 24.9721 30.675 25.2886 30.3331 25.5046C29.9913 25.7206 29.5909 25.8256 29.187 25.805L27.787 25.734C27.5133 25.7199 27.2397 25.7635 26.9839 25.8618C26.7281 25.9601 26.4957 26.1111 26.3019 26.3049C26.1081 26.4987 25.9572 26.731 25.8588 26.9869C25.7605 27.2427 25.717 27.5163 25.731 27.79L25.802 29.19C25.8199 29.5919 25.7137 29.9895 25.4978 30.3289C25.2818 30.6682 24.9666 30.9329 24.595 31.0869C24.2234 31.2409 23.8134 31.2768 23.4207 31.1897C23.028 31.1026 22.6717 30.8967 22.4 30.6L21.459 29.559C21.2754 29.3556 21.0511 29.193 20.8006 29.0817C20.5501 28.9704 20.2791 28.9128 20.005 28.9128C19.731 28.9128 19.4599 28.9704 19.2095 29.0817C18.959 29.193 18.7347 29.3556 18.551 29.559L17.606 30.6C17.3349 30.8981 16.9783 31.1053 16.5851 31.1934C16.1918 31.2814 15.781 31.2461 15.4086 31.0921C15.0362 30.9382 14.7203 30.6731 14.504 30.3331C14.2877 29.993 14.1816 29.5946 14.2 29.192L14.272 27.792C14.2861 27.5183 14.2426 27.2447 14.1442 26.9889C14.0459 26.733 13.8949 26.5007 13.7011 26.3069C13.5073 26.1131 13.275 25.9622 13.0192 25.8638C12.7634 25.7655 12.4898 25.7219 12.216 25.736L10.816 25.807C10.4123 25.8281 10.012 25.7237 9.66998 25.5081C9.32797 25.2926 9.06108 24.9764 8.90592 24.6031C8.75077 24.2298 8.71497 23.8176 8.80344 23.4232C8.89192 23.0287 9.10032 22.6713 9.40004 22.4L10.441 21.46C10.6445 21.2762 10.8071 21.0518 10.9184 20.8013C11.0297 20.5508 11.0873 20.2797 11.0873 20.0055C11.0873 19.7314 11.0297 19.4602 10.9184 19.2097C10.8071 18.9592 10.6445 18.7348 10.441 18.551L9.40004 17.606C9.10129 17.335 8.89352 16.9784 8.80514 16.5848C8.71676 16.1913 8.75208 15.78 8.90626 15.4073C9.06045 15.0346 9.32598 14.7186 9.66656 14.5025C10.0071 14.2864 10.4061 14.1807 10.809 14.2L12.209 14.271C12.4833 14.2854 12.7575 14.242 13.0138 14.1435C13.2702 14.0451 13.5029 13.8938 13.697 13.6995C13.8911 13.5053 14.0422 13.2724 14.1404 13.0159C14.2386 12.7595 14.2817 12.4852 14.267 12.211L14.2 10.81C14.1811 10.4073 14.287 10.0085 14.5031 9.66815C14.7192 9.32778 15.0351 9.06238 15.4076 8.90817C15.7801 8.75395 16.1911 8.71843 16.5846 8.80646C16.978 8.89448 17.3347 9.10176 17.606 9.4L18.546 10.438Z" stroke="white" stroke-width="1.5" stroke-linecap="round" stroke-linejoin="round"/>
<path d="M15.5 20.001C15.5 21.1945 15.9741 22.3391 16.818 23.183C17.6619 24.0269 18.8065 24.501 20 24.501C21.1935 24.501 22.3381 24.0269 23.182 23.183C24.0259 22.3391 24.5 21.1945 24.5 20.001C24.5 18.8075 24.0259 17.6629 23.182 16.819C22.3381 15.9751 21.1935 15.501 20 15.501C18.8065 15.501 17.6619 15.9751 16.818 16.819C15.9741 17.6629 15.5 18.8075 15.5 20.001V20.001Z" stroke="white" stroke-width="1.5" stroke-linecap="round" stroke-linejoin="round"/>
</svg>
